# xmcd
#
# Track frame offsets:
#	150
#	14066
#	25100
#	35544
#	48159
#	60592
#	75811
#	91135
#	99714
#	110219
#	124693
#	135780
#	145001
#	158062
#	177087
#	189241
#	207001
#	222747
#	237225
#	251209
#	267260
#
# Disc length: 3777 seconds
#
# Revision: 1
# Processed by: cddbd v1.5.2PL0 Copyright (c) Steve Scherf et al.
# Submitted via: audiograbber 1.83.01
#
DISCID=190ebf15
DTITLE=Animals - The Complete Animals CD2
DYEAR=1900
DGENRE=
TTITLE0=Memphis Tennessee
TTITLE1=Don't let me be missunderstood
TTITLE2=Club-a-gogo
TTITLE3=Roadrunner
TTITLE4=Hallelujah i love her so
TTITLE5=Don't want much
TTITLE6=I believe to my soul
TTITLE7=Let the good times roll
TTITLE8=Mess around
TTITLE9=How you've changed
TTITLE10=I ain't got you
TTITLE11=Roberta
TTITLE12=Bright lights big city
TTITLE13=Worried life blues
TTITLE14=Bring it on home to me
TTITLE15=For miss caulker
TTITLE16=I can't believe it
TTITLE17=We've gonna get out of this place
TTITLE18=It's my life
TTITLE19=I'm gonna change the world
TTITLE20=New year radio spot
EXTD=
EXTT0=
EXTT1=
EXTT2=
EXTT3=
EXTT4=
EXTT5=
EXTT6=
EXTT7=
EXTT8=
EXTT9=
EXTT10=
EXTT11=
EXTT12=
EXTT13=
EXTT14=
EXTT15=
EXTT16=
EXTT17=
EXTT18=
EXTT19=
EXTT20=
PLAYORDER=
